<svg width="80" height="80" viewBox="0 0 80 80" fill="none" xmlns="http://www.w3.org/2000/svg">
<path d="M12.6802 21.8011C12.8409 19.5723 14.6073 17.8821 16.8162 17.5448C19.6569 17.111 23.5679 16.419 26.5382 15.5299C30.1019 14.463 35.0201 12.3015 37.8188 11.0196C39.2037 10.3853 40.7963 10.3853 42.1812 11.0196C44.9799 12.3015 49.8981 14.463 53.4618 15.5299C56.432 16.419 60.3431 17.111 63.1838 17.5448C65.3927 17.8821 67.1591 19.5723 67.3198 21.8011C68.0688 32.1842 67.6797 61.1475 41.3783 69.5837C40.4949 69.867 39.5051 69.867 38.6217 69.5837C12.3203 61.1475 11.9312 32.1842 12.6802 21.8011Z" fill="#336DFF"/>
</svg>
