<svg width="101" height="65" viewBox="0 0 101 65" fill="none" xmlns="http://www.w3.org/2000/svg">
<rect width="100.6" height="65" fill="#7EAF34"/>
<line x1="84" y1="12.5" x2="100.6" y2="12.5" stroke="#D9D9D9"/>
<line x1="84" y1="51.5" x2="100.6" y2="51.5" stroke="#D9D9D9"/>
<line x1="84.5" y1="52" x2="84.5" y2="12" stroke="#D9D9D9"/>
<circle cx="89.5" cy="31.5" r="0.5" fill="#D9D9D9"/>
<line x1="95" y1="23.5" x2="100.6" y2="23.5" stroke="#D9D9D9"/>
<line x1="95" y1="40.5" x2="100.6" y2="40.5" stroke="#D9D9D9"/>
<line x1="95.5" y1="41" x2="95.5" y2="23" stroke="#D9D9D9"/>
<line x1="16.6" y1="51.5" x2="5.72205e-06" y2="51.5" stroke="#D9D9D9"/>
<line x1="16.6" y1="12.5" x2="5.72205e-06" y2="12.5" stroke="#D9D9D9"/>
<line x1="16.1" y1="12" x2="16.1" y2="52" stroke="#D9D9D9"/>
<circle cx="11.1" cy="32.5" r="0.5" transform="rotate(-180 11.1 32.5)" fill="#D9D9D9"/>
<line x1="5.60001" y1="40.5" x2="6.19888e-06" y2="40.5" stroke="#D9D9D9"/>
<line x1="5.60001" y1="23.5" x2="6.19888e-06" y2="23.5" stroke="#D9D9D9"/>
<line x1="5.10001" y1="23" x2="5.10001" y2="41" stroke="#D9D9D9"/>
<line x1="50.5" x2="50.5" y2="65" stroke="#D9D9D9" stroke-opacity="0.85098"/>
<circle cx="50.5" cy="31.5" r="1.5" transform="rotate(-180 50.5 31.5)" fill="#D9D9D9"/>
<path d="M60 31.5C60 36.7467 55.7467 41 50.5 41C45.2533 41 41 36.7467 41 31.5C41 26.2533 45.2533 22 50.5 22C55.7467 22 60 26.2533 60 31.5ZM41.95 31.5C41.95 36.222 45.778 40.05 50.5 40.05C55.222 40.05 59.05 36.222 59.05 31.5C59.05 26.778 55.222 22.95 50.5 22.95C45.778 22.95 41.95 26.778 41.95 31.5Z" fill="#D9D9D9"/>
</svg>
