<svg width="982" height="982" viewBox="0 0 982 982" fill="none" xmlns="http://www.w3.org/2000/svg">
<g clip-path="url(#clip0_1_2)">
<path d="M0 491C5.63694e-06 426.521 12.7001 362.673 37.3752 303.102C62.0502 243.532 98.217 189.404 143.811 143.811C189.404 98.217 243.532 62.0502 303.102 37.3751C362.673 12.7001 426.521 -8.4554e-06 491 0C555.479 8.45541e-06 619.327 12.7001 678.898 37.3752C738.468 62.0502 792.596 98.217 838.189 143.811C883.783 189.404 919.95 243.532 944.625 303.103C969.3 362.673 982 426.521 982 491L592.022 491C592.022 477.734 589.409 464.597 584.333 452.34C579.256 440.084 571.814 428.947 562.434 419.566C553.053 410.186 541.916 402.744 529.66 397.667C517.403 392.591 504.266 389.978 491 389.978C477.734 389.978 464.597 392.591 452.34 397.667C440.084 402.744 428.947 410.186 419.566 419.566C410.186 428.947 402.744 440.084 397.667 452.34C392.591 464.597 389.978 477.734 389.978 491L0 491Z" fill="black"/>
<rect y="491" width="390" height="491" fill="black"/>
<rect y="634" width="592" height="164" fill="black"/>
</g>
<defs>
<clipPath id="clip0_1_2">
<rect width="982" height="982" fill="black"/>
</clipPath>
</defs>
</svg>
